<?xml version="1.0" standalone="no"?> <!DOCTYPE svg PUBLIC "-//W3C//DTD SVG 1.0//EN" "http://www.w3.org/TR/2001/REC-SVG-20010904/DTD/svg10.dtd" > <svg xmlns="http://www.w3.org/2000/svg" width="100%" height="100%">
<defs >
<font horiz-adv-x="434" ><font-face
    font-family="Bullet"
    units-per-em="1000"
    panose-1="2 0 6 3 8 0 0 2 0 3"
    ascent="876"
    descent="-200"
    alphabetic="0" />
<missing-glyph horiz-adv-x="500" />
<glyph unicode=" " glyph-name="space" horiz-adv-x="180" />
<glyph unicode="!" glyph-name="exclam" horiz-adv-x="229" d="M216 166H56L241 712H401L216 166ZM160 0H0L41 121H201L160 0Z" />
<glyph unicode="&quot;" glyph-name="quotedbl" horiz-adv-x="427" d="M504 488H382L439 712H599L504 488ZM306 488H184L241 712H401L306 488Z" />
<glyph unicode="#" glyph-name="numbersign" horiz-adv-x="624" d="M703 439H582L526 273H647L614 177H494L453 57H357L398 177H276L236 57H140L181 177H60L92 273H213L269 439H149L181 535H302L343 656H438L398 535H519L560 656H656L615 535H735L703 439ZM365
439L309 273H430L486 439H365Z" />
<glyph unicode="$" glyph-name="dollar" horiz-adv-x="491" d="M572 505H386Q374 505 363 496T346 475L324 409Q319 396 325 388T344 379H489Q515 379 526 362T529 318L495 218Q487 192 464 175T414 157H318L298 96H189L210 157H61L77 205H275Q288 205 299 213T316
235L338 301Q343 313 337 322T318 331H173Q147 331 136 348T133 392L167 492Q175 518 198 535T248 553H344L364 614H473L452 553H588L572 505Z" />
<glyph unicode="%" glyph-name="percent" horiz-adv-x="703" d="M426 465Q417 440 394 423T345 405H198Q172 405 161 422T157 465L221 651Q229 677 252 694T302 712H449Q474 712 485 695T489 651L426 465ZM206 0H110L669 712H765L206 0ZM654 61Q646 35 623 18T573
0H426Q401 0 390 17T386 61L449 247Q457 272 481 290T530 308H677Q703 308 714 290T717 247L654 61ZM388 645Q393 664 375 664H343Q324 664 317 645L259 472Q256 464 259 458T271 452H303Q311 452 318 458T329 472L388 645V645ZM616 241Q619 249 615 254T603 260H572Q564
260 556 255T546 241L487 67Q482 48 500 48H532Q540 48 547 53T557 67L616 241V241Z" />
<glyph unicode="&amp;" glyph-name="ampersand" horiz-adv-x="651" d="M661 482H467L511 615Q516 628 510 636T491 645H443Q431 645 420 637T403 615L339 426Q334 414 340 405T359 396H412L389 329H336Q324 329 313 320T296 299L228 97Q223 85 229 76T248 67H315Q328
67 339 76T355 97L436 335Q444 361 468 378T517 396H715L693 329H659Q646 329 635 320T618 299L538 61Q530 35 506 18T457 0H61Q35 0 24 17T21 61L95 279Q101 296 112 311T139 338T171 355T206 362Q171 362 155 386T151 445L221 651Q229 677 252 694T302 712H679Q704
712 715 695T719 651L661 482Z" />
<glyph unicode="&apos;" glyph-name="quotesingle" horiz-adv-x="222" d="M306 488H184L241 712H401L306 488Z" />
<glyph unicode="(" glyph-name="parenleft" horiz-adv-x="293" d="M471 731H437Q425 731 414 723T397 701L163 11Q159 -2 165 -10T183 -19H217L196 -80H34Q8 -80 -3 -63T-7 -19L247 731Q256 757 279 774T329 792H492L471 731Z" />
<glyph unicode=")" glyph-name="parenright" horiz-adv-x="293" d="M217 -19Q209 -45 185 -62T136 -80H-27L-7 -19H27Q40 -19 51 -11T68 11L301 701Q306 714 300 722T281 731H247L268 792H431Q457 792 468 775T471 731L217 -19Z" />
<glyph unicode="*" glyph-name="asterisk" horiz-adv-x="362" d="M397 545L448 465L399 430L338 502L278 430L229 465L279 545L191 581L210 638L302 615L308 709H369L375 615L467 638L485 581L397 545Z" />
<glyph unicode="+" glyph-name="plus" horiz-adv-x="446" d="M431 236H307L267 118H164L204 236H80L111 329H236L276 447H378L338 329H463L431 236Z" />
<glyph unicode="," glyph-name="comma" horiz-adv-x="229" d="M144 -47Q136 -70 114 -86T69 -103H-28L-12 -55H26Q34 -55 42 -49T52 -35L64 0H0L41 121H201L144 -47Z" />
<glyph unicode="-" glyph-name="hyphen" horiz-adv-x="395" d="M406 236H80L111 329H437L406 236Z" />
<glyph unicode="." glyph-name="period" horiz-adv-x="229" d="M160 0H0L41 121H201L160 0Z" />
<glyph unicode="/" glyph-name="slash" horiz-adv-x="362" d="M88 -32H-36L439 744H569L88 -32Z" />
<glyph unicode="0" glyph-name="zero" horiz-adv-x="587" d="M538 61Q530 35 506 18T457 0H61Q35 0 24 17T21 61L221 651Q229 677 252 694T302 712H698Q723 712 734 695T738 651L538 61ZM531 615Q535 628 529 636T511 645H443Q431 645 420 637T403 615L228 97Q223
85 229 76T248 67H315Q328 67 339 76T355 97L531 615V615Z" />
<glyph unicode="1" glyph-name="one" horiz-adv-x="341" d="M271 0H77L290 630Q292 636 289 640T280 645H218L241 712H452Q477 712 488 695T492 651L271 0Z" />
<glyph unicode="2" glyph-name="two" horiz-adv-x="542" d="M604 390Q596 364 573 347T523 329H336Q324 329 313 320T296 299L217 67H495L473 0H0L113 335Q122 361 145 378T195 396H382Q394 396 405 405T422 426L486 615Q491 628 485 636T466 645H225L247 712H653Q679
712 690 695T693 651L604 390Z" />
<glyph unicode="3" glyph-name="three" horiz-adv-x="545" d="M627 445Q621 428 609 413T582 387T550 369T515 362Q550 362 566 338T570 279L496 61Q488 35 465 18T415 0H0L23 67H273Q286 67 297 76T314 97L382 298Q387 311 381 320T361 329H166L188 396H384Q397
396 409 405T426 427L489 615Q494 628 488 636T469 645H231L254 712H656Q682 712 693 695T696 651L627 445Z" />
<glyph unicode="4" glyph-name="four" horiz-adv-x="593" d="M524 0H329L413 249H145Q119 249 108 266T105 310L241 712H436L307 331Q305 325 308 321T317 316H436L570 712H765L524 0Z" />
<glyph unicode="5" glyph-name="five" horiz-adv-x="549" d="M697 645H413L329 396H559Q585 396 596 379T599 335L506 61Q498 35 474 18T425 0H61Q35 0 24 17T21 61L61 179H255L228 97Q223 85 229 76T248 67H283Q296 67 307 76T324 97L392 299Q396 311 390 320T372
329H111L241 712H720L697 645Z" />
<glyph unicode="6" glyph-name="six" horiz-adv-x="587" d="M717 645H443Q431 645 420 637T403 615L329 396H591Q616 396 627 379T631 335L538 61Q530 35 506 18T457 0H61Q35 0 24 17T21 61L221 651Q229 677 252 694T302 712H739L717 645ZM424 299Q428 311 422
320T404 329H306L228 97Q223 85 229 76T248 67H315Q328 67 339 76T355 97L424 299V299Z" />
<glyph unicode="7" glyph-name="seven" horiz-adv-x="597" d="M748 651Q746 644 742 637L342 0H132L534 615Q537 620 536 625T528 630H213L241 712H708Q734 712 745 695T748 651Z" />
<glyph unicode="8" glyph-name="eight" horiz-adv-x="587" d="M668 445Q662 428 651 413T624 387T592 369T557 362Q592 362 607 338T612 279L538 61Q530 35 506 18T457 0H61Q35 0 24 17T21 61L95 279Q101 296 112 311T139 338T171 355T206 362Q171 362 155 386T151
445L221 651Q229 677 252 694T302 712H698Q723 712 734 695T738 651L668 445ZM531 615Q535 628 529 636T511 645H443Q431 645 420 637T403 615L339 426Q334 414 340 405T359 396H426Q439 396 450 405T467 426L531 615V615ZM424 299Q428 311 422 320T404 329H336Q324
329 313 320T296 299L228 97Q223 85 229 76T248 67H315Q328 67 339 76T355 97L424 299V299Z" />
<glyph unicode="9" glyph-name="nine" horiz-adv-x="587" d="M538 61Q530 35 506 18T457 0H19L42 67H315Q328 67 339 76T355 97L408 252H146Q121 252 110 269T106 313L221 651Q229 677 252 694T302 712H698Q723 712 734 695T738 651L538 61ZM531 615Q535 628 529
636T511 645H443Q431 645 420 637T403 615L313 350Q308 337 314 328T333 319H431L531 615V615Z" />
<glyph unicode=":" glyph-name="colon" horiz-adv-x="229" d="M231 211H71L112 332H272L231 211ZM160 0H0L41 121H201L160 0Z" />
<glyph unicode=";" glyph-name="semicolon" horiz-adv-x="229" d="M231 211H71L112 332H272L231 211ZM144 -47Q136 -70 114 -86T69 -103H-28L-12 -55H26Q34 -55 42 -49T52 -35L64 0H0L41 121H201L144 -47Z" />
<glyph unicode="&lt;" glyph-name="less" horiz-adv-x="453" d="M539 460L233 348L463 236L433 149L104 308L137 404L574 564L539 460Z" />
<glyph unicode="=" glyph-name="equal" horiz-adv-x="395" d="M428 303H102L134 396H460L428 303ZM383 168H57L89 262H414L383 168Z" />
<glyph unicode="&gt;" glyph-name="greater" horiz-adv-x="453" d="M488 308L50 149L85 252L391 364L161 476L191 564L520 404L488 308Z" />
<glyph unicode="?" glyph-name="question" horiz-adv-x="545" d="M611 399Q603 374 579 356T530 338H463Q450 338 439 330T422 308L374 166H214L275 345Q283 370 306 388T356 406H423Q436 406 447 414T464 436L524 615Q529 628 523 636T504 645H408Q396 645 384
637T368 615L323 482H163L221 651Q229 677 252 694T302 712H656Q682 712 693 695T696 651L611 399ZM318 0H158L199 121H359L318 0Z" />
<glyph unicode="@" glyph-name="at" horiz-adv-x="727" d="M709 171Q703 155 692 140T667 115T636 98T602 91H248Q222 91 211 108T208 152L261 310Q270 335 293 352T343 370H486L505 427Q510 440 504 448T485 457H334L350 505H599Q624 505 635 488T639 444L542
158Q539 150 543 145T555 139H577Q596 139 603 158L727 524Q732 538 725 548T704 559H327Q312 559 299 549T280 524L127 72Q122 57 128 47T150 37H594L581 0H80Q47 0 32 23T27 80L175 516Q181 533 192 547T217 572T248 589T282 596H773Q806 596 821 573T826 516L709
171ZM424 323Q411 323 400 314T383 292L341 169Q337 156 343 148T362 139H408L470 323H424Z" />
<glyph unicode="A" glyph-name="A" horiz-adv-x="587" d="M517 0H323L408 252H280L195 0H0L221 651Q229 677 252 694T302 712H698Q723 712 734 695T738 651L517 0ZM531 615Q535 628 529 636T511 645H443Q431 645 420 637T403 615L303 319H431L531 615V615Z" />
<glyph unicode="B" glyph-name="B" horiz-adv-x="587" d="M668 445Q662 428 651 413T624 387T592 369T557 362Q592 362 607 338T612 279L538 61Q530 35 506 18T457 0H0L241 712H698Q723 712 734 695T738 651L668 445ZM531 615Q535 628 529 636T511 645H413L329
396H426Q439 396 450 405T467 426L531 615V615ZM424 299Q428 311 422 320T404 329H306L217 67H315Q328 67 339 76T355 97L424 299V299Z" />
<glyph unicode="C" glyph-name="C" horiz-adv-x="501" d="M643 645H443Q431 645 420 637T403 615L228 97Q223 85 229 76T248 67H460L437 0H61Q35 0 24 17T21 61L221 651Q229 677 252 694T302 712H666L643 645Z" />
<glyph unicode="D" glyph-name="D" horiz-adv-x="587" d="M538 61Q530 35 506 18T457 0H0L241 712H698Q723 712 734 695T738 651L538 61ZM531 615Q535 628 529 636T511 645H413L217 67H315Q328 67 339 76T355 97L531 615V615Z" />
<glyph unicode="E" glyph-name="E" horiz-adv-x="501" d="M643 645H443Q431 645 420 637T403 615L329 396H517L495 329H306L228 97Q223 85 229 76T248 67H460L437 0H61Q35 0 24 17T21 61L221 651Q229 677 252 694T302 712H666L643 645Z" />
<glyph unicode="F" glyph-name="F" horiz-adv-x="488" d="M643 645H443Q431 645 420 637T403 615L329 396H517L495 329H306L195 0H0L221 651Q229 677 252 694T302 712H666L643 645Z" />
<glyph unicode="G" glyph-name="G" horiz-adv-x="587" d="M717 645H443Q431 645 420 637T403 615L228 97Q223 85 229 76T248 67H315Q328 67 339 76T355 97L434 329H357L380 396H651L538 61Q530 35 506 18T457 0H61Q35 0 24 17T21 61L221 651Q229 677 252 694T302
712H739L717 645Z" />
<glyph unicode="H" glyph-name="H" horiz-adv-x="603" d="M533 0H338L424 252H280L195 0H0L241 712H436L303 319H447L580 712H774L533 0Z" />
<glyph unicode="I" glyph-name="I" horiz-adv-x="264" d="M195 0H0L241 712H436L195 0Z" />
<glyph unicode="J" glyph-name="J" horiz-adv-x="485" d="M436 61Q427 35 404 18T354 0H0L23 67H213Q225 67 237 76T253 97L461 712H656L436 61Z" />
<glyph unicode="K" glyph-name="K" horiz-adv-x="587" d="M500 317H564Q589 317 600 299T604 256L516 -3H381Q356 -3 345 15T342 58L396 217Q400 229 395 239T377 249H279L194 -3H-1L240 709H435L302 317Q311 318 320 323T334 336L588 709H767L500 317Z" />
<glyph unicode="L" glyph-name="L" horiz-adv-x="526" d="M457 0H61Q35 0 24 17T21 61L241 712H436L228 97Q223 85 229 76T248 67H479L457 0Z" />
<glyph unicode="M" glyph-name="M" horiz-adv-x="846" d="M776 0H581L789 615Q794 628 788 636T769 645H704L485 0H291L499 615Q503 628 497 636T479 645H413L195 0H0L241 712H956Q982 712 993 695T996 651L776 0Z" />
<glyph unicode="N" glyph-name="N" horiz-adv-x="568" d="M498 0H303L511 615Q516 628 510 636T491 645H413L195 0H0L241 712H679Q704 712 715 695T719 651L498 0Z" />
<glyph unicode="O" glyph-name="O" horiz-adv-x="587" d="M538 61Q530 35 506 18T457 0H61Q35 0 24 17T21 61L221 651Q229 677 252 694T302 712H698Q723 712 734 695T738 651L538 61ZM531 615Q535 628 529 636T511 645H443Q431 645 420 637T403 615L228 97Q223
85 229 76T248 67H315Q328 67 339 76T355 97L531 615V615Z" />
<glyph unicode="P" glyph-name="P" horiz-adv-x="587" d="M623 313Q615 287 592 270T542 252H280L195 0H0L241 712H698Q723 712 734 695T738 651L623 313ZM531 615Q535 628 529 636T511 645H413L303 319H400Q413 319 424 328T441 350L531 615V615Z" />
<glyph unicode="Q" glyph-name="Q" horiz-adv-x="587" d="M538 61Q530 35 506 18T457 0H404L423 -102H251L232 0H61Q35 0 24 17T21 61L221 651Q229 677 252 694T302 712H698Q723 712 734 695T738 651L538 61ZM531 615Q535 628 529 636T511 645H443Q431 645 420
637T403 615L228 97Q223 85 229 76T248 67H315Q328 67 339 76T355 97L531 615V615Z" />
<glyph unicode="R" glyph-name="R" horiz-adv-x="587" d="M623 313Q615 287 592 270T542 252H502L546 0H388Q369 0 358 10T345 37L311 252H280L195 0H0L241 712H698Q723 712 734 695T738 651L623 313ZM531 615Q535 628 529 636T511 645H413L303 319H400Q413 319
424 328T441 350L531 615V615Z" />
<glyph unicode="S" glyph-name="S" horiz-adv-x="539" d="M685 645H443Q431 645 420 637T403 615L339 426Q334 414 340 405T359 396H546Q572 396 583 379T586 335L493 61Q485 35 462 18T412 0H0L23 67H270Q283 67 294 76T311 97L379 299Q384 311 378 320T359 329H172Q146
329 135 346T132 390L221 651Q229 677 252 694T302 712H707L685 645Z" />
<glyph unicode="T" glyph-name="T" horiz-adv-x="590" d="M758 645H576L358 0H163L381 645H199L222 712H781L758 645Z" />
<glyph unicode="U" glyph-name="U" horiz-adv-x="568" d="M519 61Q510 35 487 18T437 0H61Q35 0 24 17T21 61L241 712H436L228 97Q223 85 229 76T248 67H296Q308 67 320 76T336 97L544 712H739L519 61Z" />
<glyph unicode="V" glyph-name="V" horiz-adv-x="552" d="M362 0H187Q165 0 153 13T143 47L224 712H414L331 121L649 712H753L362 0Z" />
<glyph unicode="W" glyph-name="W" horiz-adv-x="846" d="M797 61Q788 35 765 18T715 0H0L241 712H436L217 67H283Q296 67 307 76T324 97L532 712H726L508 67H574Q586 67 597 76T614 97L822 712H1017L797 61Z" />
<glyph unicode="X" glyph-name="X" horiz-adv-x="560" d="M471 369L526 0H358Q342 0 332 8T320 31L291 229L93 1H-25L273 350L220 712H387Q403 712 413 704T425 681L454 484L652 712H765L471 369Z" />
<glyph unicode="Y" glyph-name="Y" horiz-adv-x="568" d="M519 61Q510 35 487 18T437 0H19L42 67H296Q308 67 320 76T336 97L389 252H146Q121 252 110 269T106 313L241 712H436L313 350Q308 337 314 328T333 319H411L544 712H739L519 61Z" />
<glyph unicode="Z" glyph-name="Z" horiz-adv-x="562" d="M704 623Q701 615 693 601T679 581L222 68H516L494 1H2L33 92Q35 100 41 112T54 131L514 646H219L241 713H734L704 623Z" />
<glyph unicode="[" glyph-name="bracketleft" horiz-adv-x="293" d="M471 731H407L153 -19H217L196 -80H-27L268 792H492L471 731Z" />
<glyph unicode="\" glyph-name="backslash" horiz-adv-x="378" d="M323 -32H214L226 744H335L323 -32Z" />
<glyph unicode="]" glyph-name="bracketright" horiz-adv-x="293" d="M196 -80H-27L-7 -19H57L311 731H247L268 792H492L196 -80Z" />
<glyph unicode="^" glyph-name="asciicircum" horiz-adv-x="485" d="M437 329L416 597L214 329H111L401 712H497L526 329H437Z" />
<glyph unicode="_" glyph-name="underscore" horiz-adv-x="518" d="M415 -101H-34L-18 -53H431L415 -101Z" />
<glyph unicode="`" glyph-name="grave" horiz-adv-x="523" d="M396 427L281 531H376L491 427H396Z" />
<glyph unicode="a" glyph-name="a" horiz-adv-x="523" d="M455 0H63Q37 0 26 17T22 61L56 161Q65 187 88 204T138 222H315Q328 222 339 231T356 252L378 318Q382 330 376 339T358 348H335Q322 348 311 340T295 318L280 273H94L115 335Q124 361 147 378T197 396H529Q554
396 565 379T569 335L455 0ZM276 174Q264 174 252 165T236 144L214 78Q209 65 215 57T234 48H286L329 174H276Z" />
<glyph unicode="b" glyph-name="b" horiz-adv-x="523" d="M474 61Q466 35 442 18T393 0H0L202 596H387L319 396H527Q552 396 563 379T567 335L474 61ZM376 318Q380 330 374 339T356 348H303L201 48H254Q267 48 278 56T295 78L376 318V318Z" />
<glyph unicode="c" glyph-name="c" horiz-adv-x="523" d="M546 273H361L376 318Q380 331 374 339T356 348H333Q321 348 309 339T293 318L212 78Q207 65 213 57T232 48H254Q267 48 278 56T295 78L310 123H495L474 61Q466 35 442 18T393 0H61Q35 0 24 17T21 61L113
335Q122 361 145 378T195 396H527Q552 396 563 379T567 335L546 273Z" />
<glyph unicode="d" glyph-name="d" horiz-adv-x="523" d="M453 0H61Q35 0 24 17T21 61L113 335Q122 361 145 378T195 396H402L470 596H655L453 0ZM333 348Q321 348 309 339T293 318L212 78Q207 65 213 57T232 48H284L386 348H333Z" />
<glyph unicode="e" glyph-name="e" horiz-adv-x="523" d="M533 235Q525 209 501 192T452 174H244L212 78Q207 65 213 57T232 48H254Q267 48 278 56T295 78L310 123H495L474 61Q466 35 442 18T393 0H61Q35 0 24 17T21 61L113 335Q122 361 145 378T195 396H527Q552
396 563 379T567 335L533 235ZM376 318Q380 330 374 339T356 348H333Q321 348 309 339T293 318L260 222H313Q326 222 337 231T354 252L376 318V318Z" />
<glyph unicode="f" glyph-name="f" horiz-adv-x="375" d="M530 528H394Q382 528 370 520T354 498L319 396H453L430 328H296L185 0H0L181 535Q190 561 213 578T262 596H553L530 528Z" />
<glyph unicode="g" glyph-name="g" horiz-adv-x="523" d="M406 -139Q398 -165 375 -182T325 -200H-7Q-33 -200 -44 -183T-47 -139L-17 -49H168L144 -122Q139 -135 145 -143T164 -152H186Q199 -152 210 -144T227 -122L268 0H61Q35 0 24 17T21 61L113 335Q122 361
145 378T195 396H587L406 -139ZM333 348Q321 348 309 339T293 318L212 78Q207 65 213 57T232 48H284L386 348H333Z" />
<glyph unicode="h" glyph-name="h" horiz-adv-x="523" d="M453 0H329Q303 0 292 17T289 61L376 318Q380 331 375 339T356 348H303L185 0H0L202 596H387L319 396H527Q552 396 563 379T567 335L453 0Z" />
<glyph unicode="i" glyph-name="i" horiz-adv-x="255" d="M334 439H149L185 548H371L334 439ZM185 0H61Q35 0 24 17T21 61L134 396H319L185 0Z" />
<glyph unicode="j" glyph-name="j" horiz-adv-x="255" d="M334 439H149L185 548H371L334 439ZM138 -139Q130 -165 106 -182T57 -200H-170L-147 -132H-75Q-62 -132 -51 -124T-35 -102L134 396H319L138 -139Z" />
<glyph unicode="k" glyph-name="k" horiz-adv-x="523" d="M442 222H468Q493 222 504 205T508 161L453 0H329Q303 0 292 17T289 61L317 144Q322 156 316 165T297 174H244L185 0H0L202 596H387L260 222H264L414 396H605L442 222Z" />
<glyph unicode="l" glyph-name="l" horiz-adv-x="255" d="M185 0H61Q35 0 24 17T21 61L202 596H387L185 0Z" />
<glyph unicode="m" glyph-name="m" horiz-adv-x="737" d="M667 0H552Q527 0 516 17T512 61L599 318Q604 331 598 339T579 348H539L422 0H246L353 318Q358 331 352 339T333 348H293L176 0H0L134 396H741Q766 396 777 379T781 335L667 0Z" />
<glyph unicode="n" glyph-name="n" horiz-adv-x="523" d="M453 0H329Q303 0 292 17T289 61L376 318Q380 331 375 339T356 348H303L185 0H0L134 396H527Q552 396 563 379T567 335L453 0Z" />
<glyph unicode="o" glyph-name="o" horiz-adv-x="523" d="M474 61Q466 35 442 18T393 0H61Q35 0 24 17T21 61L113 335Q122 361 145 378T195 396H527Q552 396 563 379T567 335L474 61ZM376 318Q380 330 374 339T356 348H333Q321 348 309 339T293 318L212 78Q207
65 213 57T232 48H254Q267 48 278 56T295 78L376 318V318Z" />
<glyph unicode="p" glyph-name="p" horiz-adv-x="523" d="M474 61Q466 35 442 18T393 0H185L118 -200H-68L134 396H527Q552 396 563 379T567 335L474 61ZM376 318Q380 330 375 339T356 348H303L201 48H254Q267 48 278 56T295 78L376 318V318Z" />
<glyph unicode="q" glyph-name="q" horiz-adv-x="523" d="M386 -200H201L268 0H61Q35 0 24 17T21 61L113 335Q122 361 145 378T195 396H587L386 -200ZM333 348Q321 348 309 339T293 318L212 78Q207 65 213 57T232 48H284L386 348H333Z" />
<glyph unicode="r" glyph-name="r" horiz-adv-x="486" d="M501 206H386Q360 206 349 223T346 267L363 318Q368 331 362 339T343 348H303L185 0H0L134 396H504Q530 396 541 379T545 335L501 206Z" />
<glyph unicode="s" glyph-name="s" horiz-adv-x="523" d="M546 273H361L376 318Q380 331 374 339T356 348H333Q321 348 309 339T293 318L271 252Q266 240 272 231T291 222H468Q493 222 504 205T508 161L474 61Q466 35 442 18T393 0H61Q35 0 24 17T21 61L42 123H227L212
78Q207 65 213 57T232 48H254Q267 48 278 56T295 78L317 144Q322 156 316 165T297 174H120Q94 174 83 191T79 235L113 335Q122 361 145 378T195 396H527Q552 396 563 379T567 335L546 273Z" />
<glyph unicode="t" glyph-name="t" horiz-adv-x="421" d="M462 328H296L218 98Q214 85 220 77T238 68H374L351 0H61Q35 0 24 17T21 61L175 517H360L319 396H485L462 328Z" />
<glyph unicode="u" glyph-name="u" horiz-adv-x="523" d="M453 0H61Q35 0 24 17T21 61L134 396H319L212 78Q207 65 213 57T232 48H254Q267 48 278 56T295 78L402 396H587L453 0Z" />
<glyph unicode="v" glyph-name="v" horiz-adv-x="479" d="M305 0H97L100 396H302L288 111L477 396H576L305 0Z" />
<glyph unicode="w" glyph-name="w" horiz-adv-x="738" d="M688 61Q680 35 656 18T607 0H0L134 396H310L192 48H232Q245 48 256 56T272 78L380 396H556L438 48H478Q490 48 502 56T518 78L626 396H801L688 61Z" />
<glyph unicode="x" glyph-name="x" horiz-adv-x="536" d="M402 215L510 0H327Q313 0 303 6T288 22L253 93L165 21Q141 0 112 0H-15L208 183L102 396H284Q299 396 309 390T324 373L358 305L469 396H623L402 215Z" />
<glyph unicode="y" glyph-name="y" horiz-adv-x="523" d="M406 -139Q398 -165 375 -182T325 -200H-7Q-33 -200 -44 -183T-47 -139L-17 -49H168L144 -122Q139 -135 145 -143T164 -152H186Q199 -152 210 -144T227 -122L268 0H61Q35 0 24 17T21 61L134 396H319L212
78Q207 65 213 57T232 48H254Q267 48 278 56T295 78L402 396H587L406 -139Z" />
<glyph unicode="z" glyph-name="z" horiz-adv-x="474" d="M531 352Q527 341 520 331T503 312L199 48H431L415 0H-10L5 44Q14 67 34 84L337 348H105L121 396H546L531 352Z" />
<glyph unicode="{" glyph-name="braceleft" horiz-adv-x="363" d="M541 731H508Q495 731 484 723T467 701L371 417Q363 391 339 374T290 356Q315 356 326 339T330 295L234 11Q229 -2 235 -10T254 -19H287L267 -80H104Q78 -80 67 -63T64 -19L167 286Q172 298 166
307T147 316H107L134 396H174Q187 396 198 404T215 426L318 731Q326 757 349 774T399 792H562L541 731Z" />
<glyph unicode="|" glyph-name="bar" horiz-adv-x="185" d="M104 -32H-11L252 744H367L104 -32Z" />
<glyph unicode="}" glyph-name="braceright" horiz-adv-x="363" d="M362 410Q358 397 364 389T382 380H422L395 300H355Q343 300 331 291T315 269L211 -36Q203 -61 180 -78T130 -96H-33L-12 -36H21Q34 -36 45 -27T62 -5L158 279Q167 304 190 321T239 340Q214 340
203 357T199 400L296 684Q300 697 294 706T275 715H242L262 775H425Q451 775 462 758T465 715L362 410Z" />
<glyph unicode="~" glyph-name="asciitilde" horiz-adv-x="370" d="M518 643Q513 628 499 617T468 606H301Q295 606 290 602T282 593L275 571H193L216 640Q221 655 236 666T266 677H433Q439 677 444 681T452 690L459 712H541L518 643Z" />
</font>
</defs>
</svg>
